<svg xmlns="http://www.w3.org/2000/svg" viewBox="0 0 512 512" width="512" height="512">
  <!-- 背景圆形 -->
  <circle cx="256" cy="256" r="256" fill="#1E3A8A" />
  
  <!-- 酒店大楼图标 -->
  <g fill="#FFFFFF">
    <!-- 主体建筑 -->
    <rect x="150" y="120" width="212" height="320" rx="8" />
    
    <!-- 入口 -->
    <rect x="220" y="360" width="72" height="80" fill="#1E3A8A" />
    
    <!-- 窗户 -->
    <rect x="180" y="160" width="40" height="60" rx="4" fill="#1E3A8A" />
    <rect x="236" y="160" width="40" height="60" rx="4" fill="#1E3A8A" />
    <rect x="292" y="160" width="40" height="60" rx="4" fill="#1E3A8A" />
    
    <rect x="180" y="240" width="40" height="60" rx="4" fill="#1E3A8A" />
    <rect x="236" y="240" width="40" height="60" rx="4" fill="#1E3A8A" />
    <rect x="292" y="240" width="40" height="60" rx="4" fill="#1E3A8A" />
    
    <!-- 屋顶 -->
    <polygon points="130,120 256,60 382,120" />
    
    <!-- 星星标志 -->
    <path d="M256,100 L269.9,128.5 L301.9,133.4 L278.9,155.8 L284.7,187.6 L256,172.5 L227.3,187.6 L233.1,155.8 L210.1,133.4 L242.1,128.5 Z" fill="#FFCB6B" />
  </g>
</svg> 